<svg xmlns="http://www.w3.org/2000/svg" viewBox="0 0 260 172" role="img" aria-label="Sciovia — the path of knowing">
  <title>Sciovia — the path of knowing</title>
  <g transform="translate(94 8) scale(1.125)">
    <circle cx="32" cy="32" r="30" fill="none" stroke="#0e3a35" stroke-width="1.4" opacity="0.16"/>
    <path d="M60 32 L38 26 L32 32 Z" fill="#3a897b"/>
    <path d="M60 32 L38 38 L32 32 Z" fill="#103f39"/>
    <path d="M32 60 L26 38 L32 32 Z" fill="#3a897b"/>
    <path d="M32 60 L38 38 L32 32 Z" fill="#103f39"/>
    <path d="M4 32 L26 26 L32 32 Z" fill="#3a897b"/>
    <path d="M4 32 L26 38 L32 32 Z" fill="#103f39"/>
    <path d="M32 4 L26 26 L32 32 Z" fill="#e0a648"/>
    <path d="M32 4 L38 26 L32 32 Z" fill="#b17a22"/>
    <circle cx="32" cy="32" r="3" fill="#faf7f1" stroke="#b17a22" stroke-width="1"/>
  </g>
  <text x="130" y="128" text-anchor="middle" font-family="Fraunces, Georgia, 'Times New Roman', serif" font-weight="600" font-size="36" letter-spacing="-0.5" fill="#17403a">Sciovia</text>
  <text x="130" y="154" text-anchor="middle" font-family="Inter, Arial, sans-serif" font-weight="500" font-size="11" letter-spacing="3.5" fill="#b17a22">THE PATH OF KNOWING</text>
</svg>
